<svg width="24" height="24" viewBox="0 0 24 24" fill="none" xmlns="http://www.w3.org/2000/svg">
<path d="M7.77656 19.2131C7.77656 19.3068 7.66875 19.3818 7.53281 19.3818C7.37812 19.3959 7.27031 19.3209 7.27031 19.2131C7.27031 19.1193 7.37812 19.0443 7.51406 19.0443C7.65469 19.0303 7.77656 19.1053 7.77656 19.2131ZM6.31875 19.0021C6.28594 19.0959 6.37969 19.2037 6.52031 19.2318C6.64219 19.2787 6.78281 19.2318 6.81094 19.1381C6.83906 19.0443 6.75 18.9365 6.60938 18.8943C6.4875 18.8615 6.35156 18.9084 6.31875 19.0021ZM8.39062 18.9225C8.25469 18.9553 8.16094 19.0443 8.175 19.1521C8.18906 19.2459 8.31094 19.3068 8.45156 19.274C8.5875 19.2412 8.68125 19.1521 8.66719 19.0584C8.65312 18.9693 8.52656 18.9084 8.39062 18.9225ZM11.475 0.959961C4.97344 0.959961 0 5.8959 0 12.3975C0 17.5959 3.27187 22.0443 7.94531 23.61C8.54531 23.7178 8.75625 23.3475 8.75625 23.0428C8.75625 22.7521 8.74219 21.149 8.74219 20.1646C8.74219 20.1646 5.46094 20.8678 4.77187 18.7678C4.77187 18.7678 4.2375 17.4037 3.46875 17.0521C3.46875 17.0521 2.39531 16.3162 3.54375 16.3303C3.54375 16.3303 4.71094 16.424 5.35313 17.5396C6.37969 19.349 8.1 18.8287 8.77031 18.5193C8.87813 17.7693 9.18281 17.249 9.52031 16.9396C6.9 16.649 4.25625 16.2693 4.25625 11.76C4.25625 10.4709 4.6125 9.82402 5.3625 8.99902C5.24062 8.69434 4.84219 7.43809 5.48438 5.81621C6.46406 5.51152 8.71875 7.08184 8.71875 7.08184C9.65625 6.81934 10.6641 6.6834 11.6625 6.6834C12.6609 6.6834 13.6687 6.81934 14.6062 7.08184C14.6062 7.08184 16.8609 5.50684 17.8406 5.81621C18.4828 7.44277 18.0844 8.69434 17.9625 8.99902C18.7125 9.82871 19.1719 10.4756 19.1719 11.76C19.1719 16.2834 16.4109 16.6443 13.7906 16.9396C14.2219 17.31 14.5875 18.0131 14.5875 19.1146C14.5875 20.6943 14.5734 22.649 14.5734 23.0334C14.5734 23.3381 14.7891 23.7084 15.3844 23.6006C20.0719 22.0443 23.25 17.5959 23.25 12.3975C23.25 5.8959 17.9766 0.959961 11.475 0.959961ZM4.55625 17.1271C4.49531 17.174 4.50938 17.2818 4.58906 17.3709C4.66406 17.4459 4.77187 17.4787 4.83281 17.4178C4.89375 17.3709 4.87969 17.2631 4.8 17.174C4.725 17.099 4.61719 17.0662 4.55625 17.1271ZM4.05 16.7475C4.01719 16.8084 4.06406 16.8834 4.15781 16.9303C4.23281 16.9771 4.32656 16.9631 4.35938 16.8975C4.39219 16.8365 4.34531 16.7615 4.25156 16.7146C4.15781 16.6865 4.08281 16.7006 4.05 16.7475ZM5.56875 18.4162C5.49375 18.4771 5.52187 18.6178 5.62969 18.7068C5.7375 18.8146 5.87344 18.8287 5.93437 18.7537C5.99531 18.6928 5.96719 18.5521 5.87344 18.4631C5.77031 18.3553 5.62969 18.3412 5.56875 18.4162ZM5.03437 17.7271C4.95937 17.774 4.95937 17.8959 5.03437 18.0037C5.10938 18.1115 5.23594 18.1584 5.29688 18.1115C5.37187 18.0506 5.37187 17.9287 5.29688 17.8209C5.23125 17.7131 5.10938 17.6662 5.03437 17.7271Z" fill="white"/>
</svg>
